<svg width="11" height="10" viewBox="0 0 11 10" fill="none" xmlns="http://www.w3.org/2000/svg">
<path d="M5.9414 9.87822C5.79903 9.87822 5.66178 9.82664 5.55482 9.73295C5.15084 9.37971 4.76136 9.04776 4.41773 8.75494L4.41598 8.75342C3.40852 7.89488 2.53854 7.15346 1.93323 6.4231C1.25658 5.6066 0.941406 4.83245 0.941406 3.98673C0.941406 3.16505 1.22316 2.40699 1.73471 1.85211C2.25236 1.29066 2.96266 0.981445 3.73498 0.981445C4.31222 0.981445 4.84086 1.16394 5.30617 1.52382C5.54101 1.70547 5.75387 1.92779 5.9414 2.18712C6.129 1.92779 6.34179 1.70547 6.57669 1.52382C7.04201 1.16394 7.57065 0.981445 8.14789 0.981445C8.92014 0.981445 9.63051 1.29066 10.1482 1.85211C10.6597 2.40699 10.9414 3.16505 10.9414 3.98673C10.9414 4.83245 10.6263 5.6066 9.94964 6.42302C9.34433 7.15346 8.47443 7.89481 7.46712 8.75327C7.12288 9.04654 6.73279 9.37903 6.3279 9.73311C6.22101 9.82664 6.08368 9.87822 5.9414 9.87822ZM3.73498 1.56723C3.12822 1.56723 2.57081 1.80939 2.16531 2.24914C1.75378 2.69554 1.52711 3.3126 1.52711 3.98673C1.52711 4.69802 1.79147 5.33416 2.3842 6.04934C2.95709 6.74064 3.80921 7.4668 4.79585 8.30763L4.79768 8.30916C5.1426 8.60312 5.53361 8.93637 5.94056 9.2922C6.34995 8.93568 6.74157 8.6019 7.08718 8.30748C8.07373 7.46665 8.92578 6.74064 9.49867 6.04934C10.0913 5.33416 10.3557 4.69802 10.3557 3.98673C10.3557 3.3126 10.129 2.69554 9.71748 2.24914C9.31206 1.80939 8.75458 1.56723 8.14789 1.56723C7.7034 1.56723 7.29531 1.70853 6.93497 1.98715C6.61385 2.23556 6.39016 2.54959 6.25901 2.76931C6.19156 2.88231 6.07285 2.94975 5.9414 2.94975C5.80994 2.94975 5.69123 2.88231 5.62379 2.76931C5.49271 2.54959 5.26902 2.23556 4.94782 1.98715C4.58749 1.70853 4.17939 1.56723 3.73498 1.56723Z" fill="black"/>
</svg>
