<svg width="10" height="11" viewBox="0 0 10 11" fill="none" xmlns="http://www.w3.org/2000/svg">
<path d="M7.87109 6.91895C7.29227 6.91895 6.77795 7.20023 6.45746 7.63322L3.69828 6.22316C3.74457 6.0659 3.76953 5.89959 3.76953 5.72754C3.76953 5.49451 3.72385 5.27199 3.64113 5.0683L6.53293 3.33084C6.85559 3.70955 7.33574 3.9502 7.87109 3.9502C8.84035 3.9502 9.62891 3.16164 9.62891 2.19238C9.62891 1.22312 8.84035 0.43457 7.87109 0.43457C6.90184 0.43457 6.11328 1.22312 6.11328 2.19238C6.11328 2.41641 6.15549 2.63072 6.23223 2.82793L3.3332 4.56973C3.01078 4.20219 2.53791 3.96973 2.01172 3.96973C1.04246 3.96973 0.253906 4.75828 0.253906 5.72754C0.253906 6.6968 1.04246 7.48535 2.01172 7.48535C2.60004 7.48535 3.12172 7.19481 3.44096 6.74969L6.19213 8.15564C6.1409 8.32037 6.11328 8.49539 6.11328 8.67676C6.11328 9.64602 6.90184 10.4346 7.87109 10.4346C8.84035 10.4346 9.62891 9.64602 9.62891 8.67676C9.62891 7.7075 8.84035 6.91895 7.87109 6.91895ZM7.87109 1.02051C8.51727 1.02051 9.04297 1.54621 9.04297 2.19238C9.04297 2.83855 8.51727 3.36426 7.87109 3.36426C7.22492 3.36426 6.69922 2.83855 6.69922 2.19238C6.69922 1.54621 7.22492 1.02051 7.87109 1.02051ZM2.01172 6.89941C1.36555 6.89941 0.839844 6.37371 0.839844 5.72754C0.839844 5.08137 1.36555 4.55566 2.01172 4.55566C2.65789 4.55566 3.18359 5.08137 3.18359 5.72754C3.18359 6.37371 2.65789 6.89941 2.01172 6.89941ZM7.87109 9.84863C7.22492 9.84863 6.69922 9.32293 6.69922 8.67676C6.69922 8.03059 7.22492 7.50488 7.87109 7.50488C8.51727 7.50488 9.04297 8.03059 9.04297 8.67676C9.04297 9.32293 8.51727 9.84863 7.87109 9.84863Z" fill="black"/>
</svg>
